# Blender 4.0.2
# www.blender.org
mtllib youtube.mtl
o Cube.002
v -3.665538 3.827799 -1.280081
v -3.665538 7.518661 -1.280081
v -3.665538 3.827799 -1.041742
v -3.665538 7.518661 -1.041742
v 3.665538 3.827799 -1.280081
v 3.665538 7.518661 -1.280081
v 3.665538 3.827799 -1.041742
v 3.665538 7.518661 -1.041742
vn -1.0000 -0.0000 -0.0000
vn -0.0000 -0.0000 1.0000
vn 1.0000 -0.0000 -0.0000
vn -0.0000 -0.0000 -1.0000
vn -0.0000 -1.0000 -0.0000
vn -0.0000 1.0000 -0.0000
vt 0.780522 0.404835
vt 0.875687 0.309669
vt 0.780522 0.309669
vt 0.995360 0.009683
vt 0.004640 0.992480
vt 0.004775 0.009641
vt 0.780522 0.595165
vt 0.875687 0.500000
vt 0.780522 0.500000
vt 0.780522 0.690331
vt 0.875687 0.595165
vt 0.685356 0.595165
vt 0.685356 0.500000
vt 0.970852 0.500000
vt 0.875687 0.404835
vt 0.995225 0.992281
vt 0.875687 0.690331
vt 0.970852 0.595165
s 0
usemtl Material.002
f 3/1/1 2/2/1 1/3/1
f 7/4/2 4/5/2 3/6/2
f 5/7/3 8/8/3 7/9/3
f 1/10/4 6/11/4 5/7/4
f 1/12/5 7/9/5 3/13/5
f 6/11/6 4/14/6 8/8/6
f 3/1/1 4/15/1 2/2/1
f 7/4/2 8/16/2 4/5/2
f 5/7/3 6/11/3 8/8/3
f 1/10/4 2/17/4 6/11/4
f 1/12/5 5/7/5 7/9/5
f 6/11/6 2/18/6 4/14/6
